<svg xmlns="http://www.w3.org/2000/svg" viewBox="0 0 420 260" role="img" aria-labelledby="title desc">
  <title id="title">찾아오시는길</title>
  <desc id="desc">찾아오시는길 바로가기 샘플 이미지</desc>
  <rect width="420" height="260" rx="28" fill="#16386f"/>
  <path d="M210 54c-36 0-66 30-66 66 0 49 66 126 66 126s66-77 66-126c0-36-30-66-66-66Zm0 92a26 26 0 1 1 0-52 26 26 0 0 1 0 52Z" fill="#ffb36e"/>
  <rect x="40" y="40" width="110" height="18" rx="9" fill="#ffffff" opacity="0.16"/>
  <rect x="40" y="70" width="150" height="18" rx="9" fill="#ffffff" opacity="0.16"/>
  <rect x="40" y="100" width="170" height="18" rx="9" fill="#ffffff" opacity="0.16"/>
  <text x="40" y="232" fill="#ffffff" font-family="Noto Sans KR, sans-serif" font-size="22" font-weight="800">찾아오시는길</text>
</svg>
